#!OML:ASF X:\für Bonn\!DataBase\2005_08_12_Daniel\c3d\Daniel.ASF
:FULLY-SPECIFIED
:DEGREES
65
root 3.93828 16.6767 -2.9166 -179.79 -78.7908 137.4
lowerback 53.3952 2.28536 3.55336
upperback 14.2056 0.10375 -7.54062
thorax -5.2198 -0.83868 -9.81244
lowerneck 9.13612 8.33219 -9.03568
upperneck 30.6989 7.88496 5.75777
head 7.43743 2.46286 3.59299
rclavicle -6.75868e-015 -6.52014e-014
rhumerus -35.3164 -11.1044 -89.1683
rradius 26.7447
rwrist 1.89958
rhand -23.2215 20.4007
rfingers 7.12502
rthumb 3.22918 -9.55456
lclavicle -6.75868e-015 -6.52014e-014
lhumerus -41.6211 -3.08428 89.0833
lradius 132.186
lwrist 16.2159
lhand -19.7441 -24.982
lfingers 7.12502
lthumb 6.58687 4.8956
rfemur 28.2822 -0.457281 15.1502
rtibia 33.6536
rfoot -23.3013 -9.15028
rtoes -8.80131
lfemur -77.032 10.3473 -13.8724
ltibia 74.4048
lfoot 16.6734 5.11391
ltoes -17.6726
66
root 3.95116 16.6452 -2.92008 -177.593 -78.9626 135.648
lowerback 52.9548 2.3267 3.26897
upperback 14.2048 0.048639 -7.5486
thorax -5.19187 -0.860677 -9.66083
lowerneck 9.46687 8.41694 -9.12165
upperneck 30.5901 7.92627 5.87113
head 7.33449 2.48024 3.62781
rclavicle 1.23246e-014 -1.74931e-014
rhumerus -35.9084 -12.2816 -87.9022
rradius 24.4637
rwrist 6.85416
rhand -21.1668 19.8022
rfingers 7.12502
rthumb 5.21332 -10.1137
lclavicle 1.23246e-014 -1.74931e-014
lhumerus -41.5731 -3.37856 88.8217
lradius 131.937
lwrist 16.0395
lhand -19.6352 -25.4884
lfingers 7.12502
lthumb 6.69198 4.38586
rfemur 27.1376 -0.561439 14.912
rtibia 34.9093
rfoot -23.8992 -9.16785
rtoes -8.95452
lfemur -77.5841 10.2269 -14.8252
ltibia 78.7765
lfoot 20.4035 3.95564
ltoes -17.9597
67
root 3.97514 16.6262 -2.92464 -175.377 -79.1325 133.915
lowerback 52.4617 2.35082 3.00625
upperback 14.2148 -0.0118881 -7.56879
thorax -5.14466 -0.882777 -9.53019
lowerneck 9.70572 8.48434 -9.16209
upperneck 30.5111 7.96486 5.95499
head 7.26023 2.49947 3.64999
rclavicle -2.5842e-014 1.09729e-013
rhumerus -36.4937 -13.9982 -86.2538
rradius 22.1316
rwrist 12.9894
rhand -19.2369 19.5849
rfingers 7.12502
rthumb 7.07643 -10.2768
lclavicle -2.5842e-014 1.09729e-013
lhumerus -41.4583 -3.66173 88.5768
lradius 131.78
lwrist 15.8028
lhand -19.4794 -25.6895
lfingers 7.12502
lthumb 6.84234 4.17993
rfemur 26.0313 -0.682733 14.6997
rtibia 35.9345
rfoot -24.3394 -9.22199
rtoes -8.94788
lfemur -77.8607 10.0515 -15.7148
ltibia 82.9727
lfoot 23.345 2.63192
ltoes -18.587
68
root 4.00756 16.617 -2.92817 -173.267 -79.3417 132.338
lowerback 51.9405 2.30978 2.81101
upperback 14.2058 -0.106366 -7.59643
thorax -5.11773 -0.916654 -9.4254
lowerneck 9.91254 8.56403 -9.1894
upperneck 30.4615 8.02477 6.02912
head 7.20093 2.52812 3.66898
rclavicle 3.57812e-015 7.63333e-014
rhumerus -37.2309 -16.4367 -84.0239
rradius 19.8075
rwrist 20.5936
rhand -17.7274 19.5332
rfingers 7.12502
rthumb 8.5334 -10.2744
lclavicle 3.57812e-015 7.63333e-014
lhumerus -41.3391 -3.98292 88.3465
lradius 131.715
lwrist 15.5215
lhand -19.35 -25.5509
lfingers 7.12502
lthumb 6.96727 4.31444
rfemur 24.9265 -0.845499 14.5518
rtibia 36.8201
rfoot -24.7045 -9.30495
rtoes -9.01826
lfemur -77.8752 9.79861 -16.5181
ltibia 86.9677
lfoot 25.5529 1.31992
ltoes -18.16
69
root 4.04114 16.6057 -2.93083 -171.385 -79.5461 131.055
lowerback 51.3518 2.25598 2.66218
upperback 14.2054 -0.185806 -7.61669
thorax -5.0667 -0.940724 -9.34015
lowerneck 10.0655 8.61889 -9.2068
upperneck 30.4134 8.06563 6.08062
head 7.15377 2.54858 3.68101
rclavicle 1.70955e-014 1.30403e-013
rhumerus -38.1813 -19.2339 -81.3592
rradius 17.7037
rwrist 29.0342
rhand -16.5721 19.59
rfingers 7.12502
rthumb 9.64822 -10.169
lclavicle 1.70955e-014 1.30403e-013
lhumerus -41.1105 -4.34366 88.1387
lradius 131.665
lwrist 15.2047
lhand -19.2057 -25.137
lfingers 7.12502
lthumb 7.10661 4.72366
rfemur 23.7488 -1.01107 14.4842
rtibia 37.6816
rfoot -25.0207 -9.40848
rtoes -8.98349
lfemur -77.7149 9.61181 -17.2628
ltibia 90.7655
lfoot 27.0621 0.00800395
ltoes -16.0814
70
root 4.07336 16.5915 -2.93393 -169.525 -79.7629 129.862
lowerback 50.6832 2.18156 2.51451
upperback 14.1931 -0.278835 -7.6311
thorax -5.01685 -0.969914 -9.24267
lowerneck 10.186 8.68604 -9.23344
upperneck 30.3901 8.12549 6.1298
head 7.1186 2.57579 3.69581
rclavicle 1.98785e-014 -4.92986e-014
rhumerus -39.54 -22.6486 -77.9816
rradius 15.8711
rwrist 38.3316
rhand -15.52 20.0155
rfingers 7.12502
rthumb 10.6632 -9.6939
lclavicle 1.98785e-014 -4.92986e-014
lhumerus -40.8136 -4.71261 87.952
lradius 131.603
lwrist 14.9166
lhand -19.123 -24.6916
lfingers 7.12502
lthumb 7.18638 5.16637
rfemur 22.4768 -1.17254 14.4768
rtibia 38.596
rfoot -25.3812 -9.54336
rtoes -9.0668
lfemur -77.3624 9.46045 -17.9894
ltibia 94.3161
lfoot 27.4512 -1.44028
ltoes -14.9257
71
root 4.10251 16.5708 -2.93721 -167.758 -80.0037 128.787
lowerback 50.0032 2.08952 2.39819
upperback 14.1684 -0.373048 -7.64325
thorax -4.97397 -0.998071 -9.15732
lowerneck 10.2687 8.73952 -9.22155
upperneck 30.3905 8.17506 6.16714
head 7.10046 2.60084 3.70271
rclavicle 1.90833e-014 -2.54444e-014
rhumerus -41.3433 -26.339 -74.0456
rradius 14.3861
rwrist 47.7094
rhand -14.4978 20.5018
rfingers 7.12502
rthumb 11.6491 -9.15442
lclavicle 1.90833e-014 -2.54444e-014
lhumerus -40.4641 -5.13365 87.8
lradius 131.587
lwrist 14.6484
lhand -19.0811 -24.3467
lfingers 7.12502
lthumb 7.22688 5.50985
rfemur 21.1512 -1.33727 14.5264
rtibia 39.5985
rfoot -25.8137 -9.66019
rtoes -8.99652
lfemur -76.793 9.33636 -18.6782
ltibia 97.599
lfoot 26.8694 -2.85368
ltoes -15.3477
72
root 4.12834 16.5423 -2.94078 -166.294 -80.2848 128.036
lowerback 49.3053 1.96516 2.34601
upperback 14.1437 -0.470986 -7.64257
thorax -4.92283 -1.02592 -9.08742
lowerneck 10.3104 8.78385 -9.18314
upperneck 30.3935 8.22872 6.16454
head 7.09288 2.62874 3.69386
rclavicle -2.62396e-014 3.49861e-014
rhumerus -43.6336 -30.1437 -69.5415
rradius 13.1945
rwrist 56.9068
rhand -13.5177 20.9338
rfingers 7.12502
rthumb 12.5941 -8.6666
lclavicle -2.62396e-014 3.49861e-014
lhumerus -40.0474 -5.60196 87.668
lradius 131.614
lwrist 14.4162
lhand -19.1108 -24.2414
lfingers 7.12502
lthumb 7.19819 5.61617
rfemur 19.7883 -1.53542 14.6673
rtibia 40.6487
rfoot -26.2526 -9.82509
rtoes -8.97609
lfemur -76.0094 9.19315 -19.2659
ltibia 100.586
lfoot 25.8542 -4.15037
ltoes -16.4941
73
root 4.15375 16.5124 -2.94388 -164.953 -80.5617 127.437
lowerback 48.5643 1.82842 2.31286
upperback 14.1204 -0.573509 -7.64387
thorax -4.85909 -1.05501 -9.02747
lowerneck 10.3175 8.83255 -9.15596
upperneck 30.3912 8.29189 6.17271
head 7.08684 2.66185 3.69157
rclavicle -3.57812e-015 1.11319e-014
rhumerus -46.4074 -33.7531 -64.5872
rradius 12.2489
rwrist 65.4734
rhand -12.6621 21.2603
rfingers 7.12502
rthumb 13.4189 -8.28749
lclavicle -3.57812e-015 1.11319e-014
lhumerus -39.6244 -6.07765 87.5424
lradius 131.722
lwrist 14.2286
lhand -19.1524 -24.1805
lfingers 7.12502
lthumb 7.158 5.6784
rfemur 18.4098 -1.68798 14.8671
rtibia 41.6649
rfoot -26.7078 -9.9813
rtoes -8.93953
lfemur -75.07 9.06474 -19.7919
ltibia 103.361
lfoot 24.7177 -5.42558
ltoes -18.1868
74
root 4.1816 16.4875 -2.94747 -163.93 -80.8514 127.176
lowerback 46.9146 1.65765 2.46245
upperback 14.9697 -0.638494 -7.60707
thorax -4.808 -1.09659 -9.12274
lowerneck 10.3375 8.88173 -9.12736
upperneck 30.4087 8.35102 6.18252
head 7.086 2.69155 3.68972
rclavicle -1.98785e-015 6.20208e-014
rhumerus -49.8432 -37.2823 -58.9003
rradius 11.4624
rwrist 73.6273
rhand -12.007 21.3434
rfingers 7.12502
rthumb 14.0502 -8.16172
lclavicle -1.98785e-015 6.20208e-014
lhumerus -39.2096 -6.57201 87.4234
lradius 131.856
lwrist 14.07
lhand -19.1689 -24.0733
lfingers 7.12502
lthumb 7.14207 5.78622
rfemur 17.0625 -1.84714 15.1339
rtibia 42.5575
rfoot -27.0878 -10.1406
rtoes -8.83076
lfemur -74.0021 8.94843 -20.1942
ltibia 105.959
lfoot 23.6966 -6.61899
ltoes -19.468
